<mxfile host="app.diagrams.net" modified="2023-10-10T11:08:38.253Z" agent="Mozilla/5.0 (Windows NT 10.0; Win64; x64) AppleWebKit/537.36 (KHTML, like Gecko) Chrome/117.0.0.0 Safari/537.36" etag="z_HzWxUgO65E1cvWiJ5y" version="22.0.4" type="github">
  <diagram name="PÃ¡gina-1" id="zpyD-7xVZ65pW_wWEcL0">
    <mxGraphModel dx="1434" dy="790" grid="1" gridSize="10" guides="1" tooltips="1" connect="1" arrows="1" fold="1" page="1" pageScale="1" pageWidth="827" pageHeight="1169" math="0" shadow="0">
      <root>
        <mxCell id="0" />
        <mxCell id="1" parent="0" />
        <mxCell id="V_wM9LbllPdDiR-Z0FuP-1" value="INICIO" style="rounded=1;whiteSpace=wrap;html=1;" vertex="1" parent="1">
          <mxGeometry x="340" y="120" width="120" height="70" as="geometry" />
        </mxCell>
        <mxCell id="V_wM9LbllPdDiR-Z0FuP-2" value="" style="endArrow=classic;html=1;rounded=0;exitX=0.5;exitY=1;exitDx=0;exitDy=0;entryX=0.496;entryY=0;entryDx=0;entryDy=0;entryPerimeter=0;" edge="1" parent="1" source="V_wM9LbllPdDiR-Z0FuP-1" target="V_wM9LbllPdDiR-Z0FuP-3">
          <mxGeometry width="50" height="50" relative="1" as="geometry">
            <mxPoint x="400" y="200" as="sourcePoint" />
            <mxPoint x="399.5" y="250" as="targetPoint" />
          </mxGeometry>
        </mxCell>
        <mxCell id="V_wM9LbllPdDiR-Z0FuP-3" value="LER E,Y" style="shape=parallelogram;perimeter=parallelogramPerimeter;whiteSpace=wrap;html=1;fixedSize=1;" vertex="1" parent="1">
          <mxGeometry x="340" y="260" width="120" height="60" as="geometry" />
        </mxCell>
        <mxCell id="V_wM9LbllPdDiR-Z0FuP-7" value="" style="endArrow=classic;html=1;rounded=0;exitX=0.5;exitY=1;exitDx=0;exitDy=0;entryX=0.5;entryY=0;entryDx=0;entryDy=0;" edge="1" parent="1" source="V_wM9LbllPdDiR-Z0FuP-3" target="V_wM9LbllPdDiR-Z0FuP-10">
          <mxGeometry width="50" height="50" relative="1" as="geometry">
            <mxPoint x="364" y="400" as="sourcePoint" />
            <mxPoint x="400" y="380" as="targetPoint" />
          </mxGeometry>
        </mxCell>
        <mxCell id="V_wM9LbllPdDiR-Z0FuP-17" style="edgeStyle=orthogonalEdgeStyle;rounded=0;orthogonalLoop=1;jettySize=auto;html=1;exitX=1;exitY=0.5;exitDx=0;exitDy=0;entryX=0.5;entryY=0;entryDx=0;entryDy=0;" edge="1" parent="1" source="V_wM9LbllPdDiR-Z0FuP-10" target="V_wM9LbllPdDiR-Z0FuP-16">
          <mxGeometry relative="1" as="geometry" />
        </mxCell>
        <mxCell id="V_wM9LbllPdDiR-Z0FuP-30" value="NAO" style="edgeLabel;html=1;align=center;verticalAlign=middle;resizable=0;points=[];" vertex="1" connectable="0" parent="V_wM9LbllPdDiR-Z0FuP-17">
          <mxGeometry x="-0.2222" y="-1" relative="1" as="geometry">
            <mxPoint as="offset" />
          </mxGeometry>
        </mxCell>
        <mxCell id="V_wM9LbllPdDiR-Z0FuP-10" value="X&amp;gt;Y" style="rhombus;whiteSpace=wrap;html=1;" vertex="1" parent="1">
          <mxGeometry x="360" y="400" width="80" height="80" as="geometry" />
        </mxCell>
        <mxCell id="V_wM9LbllPdDiR-Z0FuP-13" value="RES=X-Y" style="rounded=0;whiteSpace=wrap;html=1;" vertex="1" parent="1">
          <mxGeometry x="210" y="460" width="120" height="60" as="geometry" />
        </mxCell>
        <mxCell id="V_wM9LbllPdDiR-Z0FuP-15" style="edgeStyle=orthogonalEdgeStyle;rounded=0;orthogonalLoop=1;jettySize=auto;html=1;exitX=0;exitY=0.5;exitDx=0;exitDy=0;entryX=0.567;entryY=-0.017;entryDx=0;entryDy=0;entryPerimeter=0;" edge="1" parent="1" source="V_wM9LbllPdDiR-Z0FuP-10" target="V_wM9LbllPdDiR-Z0FuP-13">
          <mxGeometry relative="1" as="geometry" />
        </mxCell>
        <mxCell id="V_wM9LbllPdDiR-Z0FuP-16" value="RES=Y-X" style="rounded=0;whiteSpace=wrap;html=1;" vertex="1" parent="1">
          <mxGeometry x="450" y="460" width="120" height="60" as="geometry" />
        </mxCell>
        <mxCell id="V_wM9LbllPdDiR-Z0FuP-22" style="edgeStyle=orthogonalEdgeStyle;rounded=0;orthogonalLoop=1;jettySize=auto;html=1;exitX=0.5;exitY=1;exitDx=0;exitDy=0;" edge="1" parent="1" source="V_wM9LbllPdDiR-Z0FuP-18" target="V_wM9LbllPdDiR-Z0FuP-23">
          <mxGeometry relative="1" as="geometry">
            <mxPoint x="390" y="730" as="targetPoint" />
          </mxGeometry>
        </mxCell>
        <mxCell id="V_wM9LbllPdDiR-Z0FuP-18" value="ESCREVER RES" style="shape=parallelogram;perimeter=parallelogramPerimeter;whiteSpace=wrap;html=1;fixedSize=1;" vertex="1" parent="1">
          <mxGeometry x="330" y="620" width="120" height="60" as="geometry" />
        </mxCell>
        <mxCell id="V_wM9LbllPdDiR-Z0FuP-19" style="edgeStyle=orthogonalEdgeStyle;rounded=0;orthogonalLoop=1;jettySize=auto;html=1;exitX=0.5;exitY=1;exitDx=0;exitDy=0;entryX=0.567;entryY=-0.017;entryDx=0;entryDy=0;entryPerimeter=0;" edge="1" parent="1" source="V_wM9LbllPdDiR-Z0FuP-13" target="V_wM9LbllPdDiR-Z0FuP-18">
          <mxGeometry relative="1" as="geometry" />
        </mxCell>
        <mxCell id="V_wM9LbllPdDiR-Z0FuP-21" style="edgeStyle=orthogonalEdgeStyle;rounded=0;orthogonalLoop=1;jettySize=auto;html=1;exitX=0.5;exitY=1;exitDx=0;exitDy=0;entryX=0.575;entryY=-0.067;entryDx=0;entryDy=0;entryPerimeter=0;" edge="1" parent="1" source="V_wM9LbllPdDiR-Z0FuP-16" target="V_wM9LbllPdDiR-Z0FuP-18">
          <mxGeometry relative="1" as="geometry" />
        </mxCell>
        <mxCell id="V_wM9LbllPdDiR-Z0FuP-23" value="FIM" style="rounded=1;whiteSpace=wrap;html=1;" vertex="1" parent="1">
          <mxGeometry x="330" y="720" width="120" height="60" as="geometry" />
        </mxCell>
        <mxCell id="V_wM9LbllPdDiR-Z0FuP-29" value="SIM" style="text;html=1;align=center;verticalAlign=middle;resizable=0;points=[];autosize=1;strokeColor=none;fillColor=none;" vertex="1" parent="1">
          <mxGeometry x="310" y="418" width="40" height="30" as="geometry" />
        </mxCell>
      </root>
    </mxGraphModel>
  </diagram>
</mxfile>
